# 3ds Max Wavefront OBJ Exporter v0.97b - (c)2007 guruware
# File Created: 07.12.2011 11:36:25

#
# object lostsoul
#

v  18.2693 -5.4545 0.0349
v  18.6600 -3.7077 0.0349
v  18.2920 -4.0345 1.0019
v  -1.2928 18.1271 5.5437
v  -4.5267 18.2646 0.0349
v  -8.6651 17.5213 3.6662
v  -12.0541 17.1092 0.0349
v  15.3801 5.1069 3.1551
v  15.3982 5.5429 0.0349
v  10.1965 13.0554 4.1045
v  15.0186 0.9760 1.1042
v  13.7882 3.6191 7.1311
v  9.4927 0.4109 9.8776
v  7.0153 10.3032 10.1433
v  15.4118 1.1891 0.0349
v  18.0251 -5.2028 0.9249
v  15.2281 -3.4303 2.1368
v  13.3462 0.1159 2.0412
v  13.4385 -0.5381 5.0254
v  12.1197 -3.0982 8.9018
v  11.9205 0.2676 7.7510
v  10.0092 -11.2449 6.2828
v  14.8439 -8.8120 3.6605
v  11.4826 -8.2763 6.0867
v  14.1695 -6.5699 4.0244
v  13.4593 1.3236 5.2471
v  17.0903 -8.1232 0.0349
v  16.5554 -6.4110 0.0349
v  15.7052 -6.1950 1.7331
v  14.9174 -5.1634 2.6424
v  -1.3181 11.6246 10.6039
v  7.2779 -9.8196 8.2054
v  -6.3376 11.8715 10.0621
v  -6.3220 7.8489 10.2662
v  -10.7264 11.6866 10.3920
v  -11.9717 16.8921 5.5843
v  -2.6032 1.8289 13.2387
v  4.8790 -11.2632 8.1618
v  3.7363 -9.4459 12.3746
v  7.6205 -12.5936 5.4155
v  7.0004 -16.5786 6.9737
v  5.8000 -13.0419 8.2492
v  2.7688 -16.6475 10.2134
v  14.0764 -17.9623 2.6295
v  14.3949 -16.0076 1.4882
v  12.8327 -14.6437 4.1405
v  10.6600 -17.6941 5.0912
v  15.0206 -13.9009 2.3922
v  14.3318 -13.4316 0.0423
v  12.4903 -13.2514 3.1280
v  -3.6798 -19.4377 0.0340
v  0.1124 -18.1337 5.0191
v  -7.2774 -19.3359 4.2528
v  10.8526 -15.3954 4.1279
v  -0.0033 -14.0563 11.3518
v  0.3076 -10.4843 12.6152
v  -2.2250 -15.8558 10.8446
v  11.0652 -12.2802 3.2479
v  13.8336 -11.9471 0.0424
v  6.7499 -12.3749 0.0373
v  15.6830 -10.8375 0.0349
v  9.2812 -12.5569 2.9544
v  -18.4762 2.2334 0.0349
v  -16.7657 6.1462 5.1581
v  -17.0358 10.3868 0.0349
v  -13.6237 2.6624 9.4527
v  -11.0994 0.3252 9.7731
v  -15.6655 0.2359 6.8828
v  -16.0541 -10.1593 6.0411
v  -17.8999 -5.6964 4.3258
v  -18.7087 -8.0638 0.0349
v  -12.4559 -6.5931 10.7568
v  -9.5692 -19.8241 0.0330
v  -13.7973 13.5103 6.2728
v  9.0584 -12.7870 4.0469
v  11.8149 -12.1018 4.5051
v  3.8851 -3.7843 11.9198
v  8.8937 14.2542 0.0349
v  14.9579 -15.3064 2.1837
v  15.8309 -15.4291 0.0426
v  8.8788 -12.3259 3.1287
v  9.0332 -12.7724 4.0489
v  13.2839 -12.0279 2.2077
v  14.5515 -16.2043 0.0418
v  15.6091 -13.9534 0.0428
v  13.8526 -18.8968 0.0409
v  14.8926 -17.6610 0.0417
v  -3.8893 -7.1816 14.5233
v  -8.9033 -13.1330 11.4706
v  10.3858 -18.9820 3.6533
v  1.2021 -18.1903 8.0031
v  18.2920 -4.0345 -0.9322
v  -1.2928 18.1271 -5.4740
v  -8.6651 17.5213 -3.5965
v  15.3801 5.1069 -3.0854
v  10.1965 13.0554 -4.0348
v  15.0186 0.9760 -1.0345
v  13.7882 3.6191 -7.0614
v  9.4927 0.4109 -9.8079
v  7.0153 10.3032 -10.0736
v  18.0251 -5.2028 -0.8552
v  15.2281 -3.4303 -2.0670
v  13.4385 -0.5381 -4.9557
v  13.3462 0.1159 -1.9714
v  12.1197 -3.0982 -8.8321
v  11.9205 0.2676 -7.6812
v  10.0092 -11.2449 -6.2131
v  11.4826 -8.2763 -6.0170
v  14.8439 -8.8120 -3.5908
v  14.1695 -6.5699 -3.9546
v  13.4593 1.3236 -5.1774
v  15.7052 -6.1950 -1.6633
v  14.9174 -5.1634 -2.5727
v  -1.3181 11.6246 -10.5342
v  7.2779 -9.8196 -8.1357
v  -6.3376 11.8715 -9.9924
v  -6.3220 7.8489 -10.1965
v  -10.7264 11.6866 -10.3223
v  -11.9717 16.8921 -5.5146
v  -2.6032 1.8289 -13.1690
v  4.8829 -11.2613 -8.0881
v  3.7387 -9.4447 -12.3033
v  7.6231 -12.5924 -5.3406
v  7.0045 -16.5767 -6.8990
v  2.7787 -16.6429 -10.1414
v  5.8064 -13.0389 -8.1734
v  14.0790 -17.9611 -2.5471
v  12.8367 -14.6418 -4.0579
v  14.3963 -16.0069 -1.4046
v  10.6649 -17.6918 -5.0120
v  15.0229 -13.8998 -2.3070
v  12.4933 -13.2500 -3.0450
v  -7.2749 -19.3348 -4.1875
v  0.1173 -18.1315 -4.9504
v  10.8558 -15.3939 -4.0489
v  0.0022 -14.0537 -11.2810
v  0.3137 -10.4815 -12.5438
v  -2.2198 -15.8533 -10.7753
v  11.0683 -12.2788 -3.1659
v  9.2812 -12.5569 -2.8846
v  -16.7657 6.1462 -5.0884
v  -11.0994 0.3252 -9.7034
v  -13.6237 2.6624 -9.3830
v  -15.6655 0.2359 -6.8131
v  -16.0541 -10.1593 -5.9714
v  -17.8999 -5.6964 -4.2561
v  -12.4559 -6.5931 -10.6871
v  -13.7973 13.5103 -6.2031
v  9.0584 -12.7870 -3.9772
v  11.8149 -12.1018 -4.4354
v  3.8851 -3.7843 -11.8500
v  14.9600 -15.3055 -2.0992
v  8.8804 -12.3252 -3.0531
v  9.0352 -12.7715 -3.9732
v  13.2860 -12.0269 -2.1234
v  -3.8893 -7.1816 -14.4535
v  -8.9011 -13.1319 -11.4022
v  10.3893 -18.9804 -3.5749
v  1.2098 -18.1867 -7.9333
# 159 vertices

vn 0.7898 -0.6133 -0.0000
vn 0.9742 0.2255 -0.0000
vn 0.7538 0.0826 0.6519
vn 0.1138 0.9118 0.3945
vn 0.0160 0.9999 -0.0000
vn -0.0940 0.9492 0.3005
vn -0.5372 0.8435 0.0000
vn 0.9467 0.1995 0.2528
vn 0.9495 0.3138 0.0000
vn 0.6573 0.6969 0.2869
vn 0.8385 -0.0393 0.5434
vn 0.8009 0.0143 0.5986
vn 0.4307 0.0575 0.9007
vn 0.3981 0.4215 0.8148
vn 0.9821 0.1882 0.0000
vn 0.6710 -0.4638 0.5785
vn 0.6516 0.2054 0.7302
vn 0.9416 -0.2719 0.1985
vn 0.9488 0.1378 0.2841
vn 0.6772 -0.0809 0.7313
vn 0.7863 -0.0170 0.6176
vn 0.3765 -0.5433 0.7504
vn 0.7481 -0.1918 0.6353
vn 0.5843 -0.2997 0.7542
vn 0.7964 -0.0368 0.6037
vn 0.3841 0.2279 0.8947
vn 0.8922 -0.3132 0.3254
vn 0.9964 -0.0849 -0.0000
vn 0.9183 -0.3959 -0.0000
vn 0.7433 -0.1497 0.6520
vn 0.7671 -0.0105 0.6415
vn -0.0019 0.4279 0.9038
vn 0.4601 -0.4865 0.7428
vn -0.0325 0.4045 0.9140
vn -0.1631 0.1384 0.9768
vn -0.3025 0.3192 0.8981
vn -0.4259 0.8080 0.4072
vn -0.0531 0.1650 0.9849
vn 0.5670 -0.3411 0.7498
vn 0.4883 -0.3931 0.7791
vn 0.5912 -0.2541 0.7654
vn 0.5960 0.3073 0.7419
vn 0.6589 0.1866 0.7287
vn 0.3019 -0.4598 0.8351
vn 0.7329 -0.4585 0.5026
vn 0.8333 -0.3886 0.3931
vn 0.3180 0.2828 0.9049
vn 0.4404 -0.3129 0.8415
vn 0.7118 0.4972 0.4961
vn 0.6724 0.7402 0.0005
vn 0.3575 0.4731 0.8052
vn 0.0745 -0.9972 -0.0001
vn -0.0927 -0.9810 0.1707
vn -0.2314 -0.9043 0.3588
vn 0.2037 0.3656 0.9082
vn 0.2754 -0.2692 0.9229
vn 0.2832 -0.4130 0.8656
vn 0.1068 -0.9107 0.3990
vn -0.0684 -0.6652 0.7435
vn 0.1442 0.7804 0.6084
vn 0.6060 0.7954 0.0005
vn 0.9933 0.1154 -0.0002
vn 0.7019 -0.7123 0.0000
vn -0.0494 -0.9936 -0.1014
vn -0.9968 0.0802 0.0000
vn -0.8833 0.1410 0.4471
vn -0.9268 0.3755 0.0000
vn -0.5502 -0.0737 0.8318
vn -0.4288 -0.0300 0.9029
vn -0.7894 0.0200 0.6135
vn -0.7879 -0.4119 0.4577
vn -0.9064 -0.0429 0.4202
vn -0.9531 -0.3028 0.0000
vn -0.5787 -0.0171 0.8153
vn -0.4480 -0.8940 -0.0002
vn -0.7942 0.4167 0.4423
vn -0.0700 -0.9975 0.0021
vn 0.4442 -0.7904 0.4219
vn 0.3660 0.0041 0.9306
vn 0.5608 0.8280 -0.0000
vn 0.6760 -0.4868 0.5532
vn 0.9123 -0.4095 0.0004
vn -0.8611 0.3774 0.3406
vn -0.2375 -0.5306 0.8137
vn 0.5708 0.6688 0.4763
vn 0.9344 -0.3563 0.0004
vn 0.8154 0.5789 0.0005
vn 0.4654 -0.8851 0.0000
vn 0.9698 -0.2441 0.0004
vn -0.0753 -0.0624 0.9952
vn -0.4197 -0.4923 0.7626
vn 0.1883 -0.9248 0.3306
vn -0.1442 -0.9396 0.3104
vn 0.7538 0.0826 -0.6519
vn 0.1138 0.9118 -0.3945
vn -0.0940 0.9492 -0.3005
vn 0.9467 0.1995 -0.2528
vn 0.6573 0.6969 -0.2869
vn 0.8385 -0.0393 -0.5434
vn 0.8009 0.0143 -0.5986
vn 0.4307 0.0575 -0.9007
vn 0.3981 0.4215 -0.8148
vn 0.6710 -0.4638 -0.5785
vn 0.6516 0.2054 -0.7302
vn 0.9488 0.1378 -0.2841
vn 0.8560 -0.1123 -0.5046
vn 0.6772 -0.0809 -0.7313
vn 0.7863 -0.0170 -0.6176
vn 0.3761 -0.5435 -0.7504
vn 0.5843 -0.2997 -0.7542
vn 0.7481 -0.1918 -0.6353
vn 0.7964 -0.0368 -0.6036
vn 0.8922 -0.3132 -0.3254
vn 0.7433 -0.1497 -0.6520
vn 0.7671 -0.0105 -0.6415
vn -0.0019 0.4279 -0.9038
vn 0.4599 -0.4869 -0.7426
vn -0.0325 0.4045 -0.9140
vn -0.1631 0.1384 -0.9768
vn -0.3025 0.3192 -0.8981
vn -0.4259 0.8080 -0.4072
vn -0.0531 0.1650 -0.9849
vn 0.5670 -0.3413 -0.7497
vn 0.4884 -0.3932 -0.7790
vn 0.5912 -0.2549 -0.7652
vn 0.5966 0.3081 -0.7410
vn 0.3027 -0.4592 -0.8352
vn 0.6595 0.1871 -0.7281
vn 0.7334 -0.4583 -0.5021
vn 0.3191 0.2832 -0.9044
vn 0.8337 -0.3885 -0.3925
vn 0.4412 -0.3126 -0.8412
vn 0.7123 0.4974 -0.4951
vn 0.3584 0.4735 -0.8046
vn -0.2312 -0.9042 -0.3591
vn -0.0493 -0.9736 -0.2227
vn 0.2050 0.3657 -0.9079
vn 0.2758 -0.2691 -0.9228
vn 0.2834 -0.4131 -0.8655
vn -0.0678 -0.6652 -0.7436
vn 0.1451 0.7808 -0.6076
vn -0.0507 -0.9935 0.1016
vn -0.8833 0.1410 -0.4471
vn -0.4288 -0.0300 -0.9029
vn -0.5502 -0.0737 -0.8318
vn -0.7894 0.0200 -0.6135
vn -0.7879 -0.4120 -0.4577
vn -0.9064 -0.0429 -0.4202
vn -0.5787 -0.0172 -0.8153
vn -0.7942 0.4167 -0.4423
vn -0.0655 -0.9979 -0.0020
vn 0.4442 -0.7904 -0.4219
vn 0.3660 0.0041 -0.9306
vn 0.6766 -0.4865 -0.5527
vn -0.8589 0.3781 -0.3454
vn -0.2048 -0.5416 -0.8153
vn 0.5713 0.6690 -0.4754
vn -0.0753 -0.0625 -0.9952
vn -0.4195 -0.4923 -0.7627
vn 0.1886 -0.9246 -0.3308
vn -0.1436 -0.9395 -0.3109
# 161 vertex normals

vt 0.0078 0.4414 0.4414
vt 0.0079 0.4782 0.4782
vt 0.0258 0.4710 0.4710
vt 0.5611 0.9216 0.9216
vt 0.5797 0.9894 0.9894
vt 0.7627 0.9196 0.9196
vt 0.9072 0.9617 0.9617
vt 0.0755 0.6604 0.6604
vt 0.0090 0.6692 0.6692
vt 0.1885 0.8287 0.8287
vt 0.0316 0.5737 0.5737
vt 0.1672 0.6287 0.6287
vt 0.2686 0.5592 0.5592
vt 0.3279 0.7482 0.7482
vt 0.0074 0.5783 0.5783
vt 0.0251 0.4468 0.4468
vt 0.0541 0.4819 0.4819
vt 0.0578 0.5547 0.5547
vt 0.1268 0.5415 0.5415
vt 0.2154 0.4876 0.4876
vt 0.1978 0.5576 0.5576
vt 0.1876 0.3158 0.3158
vt 0.0868 0.3687 0.3687
vt 0.1666 0.3787 0.3787
vt 0.0996 0.4159 0.4159
vt 0.1317 0.5804 0.5804
vt 0.0084 0.3850 0.3850
vt 0.0077 0.4204 0.4204
vt 0.0444 0.4245 0.4245
vt 0.0657 0.4450 0.4450
vt 0.5276 0.7864 0.7864
vt 0.2728 0.3440 0.3440
vt 0.6311 0.7743 0.7743
vt 0.6498 0.6788 0.6788
vt 0.7170 0.7665 0.7665
vt 0.8111 0.8886 0.8886
vt 0.5425 0.5813 0.5813
vt 0.3368 0.2831 0.2831
vt 0.4008 0.3397 0.3397
vt 0.2151 0.2476 0.2476
vt 0.2868 0.1596 0.1596
vt 0.3392 0.2270 0.2270
vt 0.4784 0.1634 0.1634
vt 0.0901 0.0641 0.0641
vt 0.0521 0.1003 0.1003
vt 0.1346 0.1445 0.1445
vt 0.2030 0.0960 0.0960
vt 0.0715 0.1465 0.1465
vt 0.0101 0.1597 0.1597
vt 0.1009 0.1736 0.1736
vt 0.5901 0.0284 0.0284
vt 0.6247 0.1235 0.1235
vt 0.8297 0.1479 0.1479
vt 0.1491 0.1550 0.1550
vt 0.4992 0.2377 0.2377
vt 0.4826 0.3120 0.3120
vt 0.5609 0.2058 0.2058
vt 0.1144 0.2014 0.2014
vt 0.0099 0.1923 0.1923
vt 0.0107 0.2539 0.2539
vt 0.0087 0.3274 0.3274
vt 0.1031 0.2870 0.2870
vt 0.9910 0.5779 0.5779
vt 0.8855 0.6613 0.6613
vt 0.9930 0.7491 0.7491
vt 0.7780 0.5911 0.5911
vt 0.7381 0.5440 0.5440
vt 0.8428 0.5388 0.5388
vt 0.8583 0.3214 0.3214
vt 0.9045 0.4132 0.4132
vt 0.9910 0.3628 0.3628
vt 0.7387 0.3988 0.3988
vt 0.9885 0.1362 0.1362
vt 0.8241 0.8180 0.8180
vt 0.1382 0.2819 0.2819
vt 0.1264 0.2989 0.2989
vt 0.3946 0.4688 0.4688
vt 0.0897 0.9274 0.9274
vt 0.0636 0.1182 0.1182
vt 0.0103 0.1109 0.1109
vt 0.1194 0.2490 0.2490
vt 0.1478 0.2391 0.2391
vt 0.0678 0.1873 0.1873
vt 0.0082 0.0716 0.0716
vt 0.0101 0.1418 0.1418
vt 0.0529 0.0086 0.0086
vt 0.0109 0.0652 0.0652
vt 0.7783 0.0284 0.0284
vt 0.5574 0.3925 0.3925
vt 0.6772 0.2702 0.2702
vt 0.1852 0.0173 0.0173
vt 0.2911 0.0059 0.0059
vt 0.5385 0.1413 0.1413
vt 0.0259 0.4712 0.4712
# 94 texture coords

g lostsoul
usemtl models_monsters_lost_lost
s 17
f 1/1/1 2/2/2 3/3/3 
s 18
f 4/4/4 5/5/5 6/6/6 
s 19
f 5/5/5 7/7/7 6/6/6 
s 20
f 8/8/8 9/9/9 10/10/10 
s 21
f 11/11/11 8/8/8 12/12/12 
s 22
f 13/13/13 12/12/12 14/14/14 
s 23
f 15/15/15 9/9/9 8/8/8 
s 24
f 2/2/2 15/15/15 11/11/11 
s 25
f 3/3/3 2/2/2 11/11/11 
s 26
f 1/1/1 3/3/3 16/16/16 
s 27
f 17/17/17 18/18/18 19/19/19 
s 28
f 17/17/17 19/19/19 20/20/20 
s 29
f 20/20/20 19/19/19 21/21/21 
s 30
f 22/22/22 23/23/23 24/24/24 
s 31
f 23/23/23 25/25/25 24/24/24 
s 32
f 17/17/17 11/11/11 18/18/26 
s 33
f 3/3/3 11/11/11 17/17/17 
s 34
f 21/21/21 26/26/27 12/12/12 
s 35
f 27/27/28 28/28/29 29/29/30 
s 36
f 29/29/30 16/16/16 30/30/31 
s 37
f 16/16/16 3/3/3 30/30/31 
s 38
f 28/28/29 1/1/1 16/16/16 
s 39
f 28/28/29 16/16/16 29/29/30 
s 40
f 14/14/14 4/4/4 31/31/32 
s 41
f 14/14/14 10/10/10 4/4/4 
s 42
f 22/22/22 24/24/24 32/32/33 
s 43
f 33/33/34 4/4/4 6/6/6 
s 44
f 31/31/32 4/4/4 33/33/34 
s 45
f 34/34/35 33/33/34 35/35/36 
s 46
f 33/33/34 36/36/37 35/35/36 
s 47
f 33/33/34 6/6/6 36/36/37 
s 48
f 6/6/6 7/7/7 36/36/37 
s 49
f 13/13/13 14/14/14 37/37/38 
s 50
f 37/37/38 14/14/14 31/31/32 
s 51
f 38/38/39 32/32/33 39/39/40 
s 52
f 40/40/41 22/22/22 32/32/33 
s 53
f 40/40/41 32/32/33 38/38/39 
s 54
f 41/41/42 42/42/43 43/43/44 
s 55
f 44/44/45 45/45/46 46/46/47 
s 56
f 44/44/45 46/46/47 47/47/48 
s 57
f 48/48/49 49/49/50 50/50/51 
s 58
f 51/51/52 52/52/53 53/53/54 
s 59
f 41/41/42 40/40/41 42/42/43 
s 60
f 54/54/55 40/40/41 41/41/42 
s 61
f 47/47/48 41/41/42 43/43/44 
s 62
f 43/43/44 42/42/43 55/55/56 
s 63
f 39/39/40 56/56/57 38/38/39 
s 64
f 52/52/58 57/57/59 53/53/54 
s 65
f 46/46/47 50/50/51 54/54/55 
s 66
f 48/48/49 50/50/51 46/46/47 
s 67
f 54/54/55 50/50/51 58/58/60 
s 68
f 59/59/61 60/60/62 58/58/60 
s 69
f 60/60/62 61/61/63 62/62/64 
s 70
f 43/43/44 55/55/56 57/57/59 
s 71
f 63/63/65 64/64/66 65/65/67 
s 72
f 37/37/38 66/66/68 67/67/69 
s 73
f 67/67/69 66/66/68 68/68/70 
s 74
f 68/68/70 66/66/68 64/64/66 
s 75
f 68/68/70 64/64/66 63/63/65 
s 76
f 69/69/71 70/70/72 71/71/73 
s 77
f 69/69/71 72/72/74 70/70/72 
s 78
f 73/73/75 53/53/54 69/69/71 
s 79
f 71/71/73 70/70/72 63/63/65 
s 80
f 72/72/74 67/67/69 68/68/70 
s 81
f 66/66/68 74/74/76 64/64/66 
s 82
f 35/35/36 36/36/37 74/74/76 
s 83
f 64/64/66 74/74/76 65/65/67 
s 84
f 65/65/67 74/74/76 7/7/7 
s 85
f 74/74/76 36/36/37 7/7/7 
s 86
f 37/37/38 34/34/35 66/66/68 
s 87
f 66/66/68 34/34/35 35/35/36 
s 88
f 66/66/68 35/35/36 74/74/76 
s 89
f 24/24/24 25/25/25 20/20/20 
s 90
f 20/20/20 21/21/21 13/13/13 
s 91
f 21/21/21 12/12/12 13/13/13 
s 92
f 19/19/19 26/26/27 21/21/21 
s 93
f 19/19/19 18/18/18 26/26/27 
s 94
f 11/11/11 12/12/12 26/26/27 
s 95
f 18/18/18 11/11/11 26/26/27 
s 96
f 40/40/41 75/75/77 22/22/22 
s 97
f 76/76/78 23/23/23 22/22/22 
s 98
f 75/75/77 76/76/78 22/22/22 
s 99
f 76/76/78 61/61/63 23/23/23 
s 100
f 61/61/63 27/27/28 23/23/23 
s 101
f 20/20/20 13/13/13 77/77/79 
s 102
f 77/77/79 13/13/13 37/37/38 
s 103
f 62/62/64 61/61/63 76/76/78 
s 104
f 75/75/77 62/62/64 76/76/78 
s 105
f 29/29/30 30/30/31 25/25/25 
s 106
f 25/25/25 30/30/31 20/20/20 
s 107
f 30/30/31 17/17/17 20/20/20 
s 108
f 30/30/31 3/3/3 17/17/17 
s 109
f 32/32/33 24/24/24 20/20/20 
s 110
f 32/32/33 20/20/20 77/77/79 
s 111
f 32/32/33 77/77/79 39/39/40 
s 112
f 42/42/43 40/40/41 38/38/39 
s 113
f 9/9/9 78/78/80 10/10/10 
s 114
f 10/10/10 78/78/80 4/4/4 
s 115
f 78/78/80 5/5/5 4/4/4 
s 116
f 34/34/35 31/31/32 33/33/34 
s 117
f 37/37/38 31/31/32 34/34/35 
s 118
f 79/79/81 48/48/49 46/46/47 
s 119
f 45/45/46 79/79/81 46/46/47 
s 120
f 80/80/82 79/79/81 45/45/46 
s 121
f 80/80/82 48/48/49 79/79/81 
s 122
f 12/12/12 10/10/10 14/14/14 
s 123
f 12/12/12 8/8/8 10/10/10 
s 124
f 23/23/23 29/29/30 25/25/25 
s 125
f 23/23/23 27/27/28 29/29/30 
s 126
f 81/81/83 60/60/62 62/62/64 
s 127
f 81/81/83 62/62/64 75/75/77 
s 128
f 82/82/84 81/81/83 75/75/77 
s 129
f 82/82/84 75/75/77 40/40/41 
s 130
f 58/58/60 81/81/83 82/82/84 
s 131
f 58/58/60 60/60/62 81/81/83 
s 132
f 54/54/55 82/82/84 40/40/41 
s 133
f 54/54/55 58/58/60 82/82/84 
s 134
f 59/59/61 58/58/60 83/83/85 
s 135
f 49/49/50 59/59/61 83/83/85 
s 136
f 49/49/50 83/83/85 50/50/51 
s 137
f 50/50/51 83/83/85 58/58/60 
s 138
f 80/80/82 45/45/46 84/84/86 
s 139
f 80/80/82 85/85/87 48/48/49 
s 140
f 85/85/87 49/49/50 48/48/49 
s 141
f 86/86/88 87/87/89 44/44/45 
s 142
f 47/47/48 54/54/55 41/41/42 
s 143
f 47/47/48 46/46/47 54/54/55 
s 144
f 70/70/72 68/68/70 63/63/65 
s 145
f 72/72/74 68/68/70 70/70/72 
s 146
f 73/73/75 69/69/71 71/71/73 
s 147
f 87/87/89 45/45/46 44/44/45 
s 148
f 87/87/89 84/84/86 45/45/46 
s 149
f 11/11/11 15/15/15 8/8/8 
s 150
f 51/51/52 53/53/54 73/88/75 
s 151
f 77/77/79 37/37/38 88/89/90 
s 152
f 39/39/40 77/77/79 88/89/90 
s 153
f 57/57/59 55/55/56 88/89/90 
s 154
f 57/57/59 88/89/90 89/90/91 
s 155
f 89/90/91 88/89/90 72/72/74 
s 156
f 72/72/74 88/89/90 67/67/69 
s 157
f 88/89/90 37/37/38 67/67/69 
s 158
f 53/53/54 57/57/59 89/90/91 
s 159
f 53/53/54 89/90/91 69/69/71 
s 160
f 89/90/91 72/72/74 69/69/71 
s 161
f 56/56/57 39/39/40 88/89/90 
s 162
f 56/56/57 88/89/90 55/55/56 
s 163
f 55/55/56 38/38/39 56/56/57 
s 164
f 42/42/43 38/38/39 55/55/56 
s 165
f 90/91/92 44/44/45 47/47/48 
s 166
f 90/91/92 86/86/88 44/44/45 
s 167
f 90/91/92 51/51/52 86/92/88 
s 168
f 90/91/92 52/52/53 51/51/52 
s 169
f 91/93/93 52/52/53 90/91/92 
s 170
f 43/43/44 91/93/93 90/91/92 
s 171
f 43/43/44 90/91/92 47/47/48 
s 172
f 52/52/53 91/93/93 57/57/59 
s 173
f 57/57/59 91/93/93 43/43/44 
s 174
f 1/1/1 92/94/94 2/2/2 
s 175
f 93/4/95 94/6/96 5/5/5 
s 176
f 5/5/5 94/6/96 7/7/7 
s 177
f 95/8/97 96/10/98 9/9/9 
s 178
f 97/11/99 98/12/100 95/8/97 
s 179
f 99/13/101 100/14/102 98/12/100 
s 180
f 15/15/15 95/8/97 9/9/9 
s 181
f 2/2/2 97/11/99 15/15/15 
s 182
f 92/94/94 97/11/99 2/2/2 
s 183
f 1/1/1 101/16/103 92/94/94 
s 184
f 102/17/104 103/19/105 104/18/106 
s 185
f 102/17/104 105/20/107 103/19/105 
s 186
f 105/20/107 106/21/108 103/19/105 
s 187
f 107/22/109 108/24/110 109/23/111 
s 188
f 109/23/111 108/24/110 110/25/112 
s 189
f 102/17/104 104/18/106 97/11/99 
s 190
f 92/94/94 102/17/104 97/11/99 
s 191
f 106/21/108 98/12/100 111/26/113 
s 192
f 27/27/28 112/29/114 28/28/29 
s 193
f 112/29/114 113/30/115 101/16/103 
s 194
f 101/16/103 113/30/115 92/94/94 
s 195
f 28/28/29 101/16/103 1/1/1 
s 196
f 28/28/29 112/29/114 101/16/103 
s 197
f 100/14/102 114/31/116 93/4/95 
s 198
f 100/14/102 93/4/95 96/10/98 
s 199
f 107/22/109 115/32/117 108/24/110 
s 200
f 116/33/118 94/6/96 93/4/95 
s 201
f 114/31/116 116/33/118 93/4/95 
s 202
f 117/34/119 118/35/120 116/33/118 
s 203
f 116/33/118 118/35/120 119/36/121 
s 204
f 116/33/118 119/36/121 94/6/96 
s 205
f 94/6/96 119/36/121 7/7/7 
s 206
f 99/13/101 120/37/122 100/14/102 
s 207
f 120/37/122 114/31/116 100/14/102 
s 208
f 121/38/123 122/39/124 115/32/117 
s 209
f 123/40/125 115/32/117 107/22/109 
s 210
f 123/40/125 121/38/123 115/32/117 
s 211
f 124/41/126 125/43/127 126/42/128 
s 212
f 127/44/129 128/46/130 129/45/131 
s 213
f 127/44/129 130/47/132 128/46/130 
s 214
f 131/48/133 132/50/134 49/49/50 
s 215
f 51/51/52 133/53/135 134/52/136 
s 216
f 124/41/126 126/42/128 123/40/125 
s 217
f 135/54/137 124/41/126 123/40/125 
s 218
f 130/47/132 125/43/127 124/41/126 
s 219
f 125/43/127 136/55/138 126/42/128 
s 220
f 122/39/124 121/38/123 137/56/139 
s 221
f 134/52/136 133/53/135 138/57/140 
s 222
f 128/46/130 135/54/137 132/50/134 
s 223
f 131/48/133 128/46/130 132/50/134 
s 224
f 135/54/137 139/58/141 132/50/134 
s 225
f 59/59/61 139/58/141 60/60/62 
s 226
f 60/60/62 140/62/142 61/61/63 
s 227
f 125/43/127 138/57/140 136/55/138 
s 228
f 63/63/65 65/65/67 141/64/143 
s 229
f 120/37/122 142/67/144 143/66/145 
s 230
f 142/67/144 144/68/146 143/66/145 
s 231
f 144/68/146 141/64/143 143/66/145 
s 232
f 144/68/146 63/63/65 141/64/143 
s 233
f 145/69/147 71/71/73 146/70/148 
s 234
f 145/69/147 146/70/148 147/72/149 
s 235
f 73/73/75 145/69/147 133/53/135 
s 236
f 71/71/73 63/63/65 146/70/148 
s 237
f 147/72/149 144/68/146 142/67/144 
s 238
f 143/66/145 141/64/143 148/74/150 
s 239
f 118/35/120 148/74/150 119/36/121 
s 240
f 141/64/143 65/65/67 148/74/150 
s 241
f 65/65/67 7/7/7 148/74/150 
s 242
f 148/74/150 7/7/7 119/36/121 
s 243
f 120/37/122 143/66/145 117/34/119 
s 244
f 143/66/145 118/35/120 117/34/119 
s 245
f 143/66/145 148/74/150 118/35/120 
s 246
f 108/24/110 105/20/107 110/25/112 
s 247
f 105/20/107 99/13/101 106/21/108 
s 248
f 106/21/108 99/13/101 98/12/100 
s 249
f 103/19/105 106/21/108 111/26/113 
s 250
f 103/19/105 111/26/113 104/18/106 
s 251
f 97/11/99 111/26/113 98/12/100 
s 252
f 104/18/106 111/26/113 97/11/99 
s 253
f 123/40/125 107/22/109 149/75/151 
s 254
f 150/76/152 107/22/109 109/23/111 
s 255
f 149/75/151 107/22/109 150/76/152 
s 256
f 150/76/152 109/23/111 61/61/63 
s 257
f 61/61/63 109/23/111 27/27/28 
s 258
f 105/20/107 151/77/153 99/13/101 
s 259
f 151/77/153 120/37/122 99/13/101 
s 260
f 140/62/142 150/76/152 61/61/63 
s 261
f 149/75/151 150/76/152 140/62/142 
s 262
f 112/29/114 110/25/112 113/30/115 
s 263
f 110/25/112 105/20/107 113/30/115 
s 264
f 113/30/115 105/20/107 102/17/104 
s 265
f 113/30/115 102/17/104 92/94/94 
s 266
f 115/32/117 105/20/107 108/24/110 
s 267
f 115/32/117 151/77/153 105/20/107 
s 268
f 115/32/117 122/39/124 151/77/153 
s 269
f 126/42/128 121/38/123 123/40/125 
s 270
f 9/9/9 96/10/98 78/78/80 
s 271
f 96/10/98 93/4/95 78/78/80 
s 272
f 78/78/80 93/4/95 5/5/5 
s 273
f 117/34/119 116/33/118 114/31/116 
s 274
f 120/37/122 117/34/119 114/31/116 
s 275
f 152/79/154 128/46/130 131/48/133 
s 276
f 129/45/131 128/46/130 152/79/154 
s 277
f 80/80/82 129/45/131 152/79/154 
s 278
f 80/80/82 152/79/154 131/48/133 
s 279
f 98/12/100 100/14/102 96/10/98 
s 280
f 98/12/100 96/10/98 95/8/97 
s 281
f 109/23/111 110/25/112 112/29/114 
s 282
f 109/23/111 112/29/114 27/27/28 
s 283
f 153/81/155 140/62/142 60/60/62 
s 284
f 153/81/155 149/75/151 140/62/142 
s 285
f 154/82/156 149/75/151 153/81/155 
s 286
f 154/82/156 123/40/125 149/75/151 
s 287
f 139/58/141 154/82/156 153/81/155 
s 288
f 139/58/141 153/81/155 60/60/62 
s 289
f 135/54/137 123/40/125 154/82/156 
s 290
f 135/54/137 154/82/156 139/58/141 
s 291
f 59/59/61 155/83/157 139/58/141 
s 292
f 49/49/50 155/83/157 59/59/61 
s 293
f 49/49/50 132/50/134 155/83/157 
s 294
f 132/50/134 139/58/141 155/83/157 
s 295
f 80/80/82 84/84/86 129/45/131 
s 296
f 80/80/82 131/48/133 85/85/87 
s 297
f 85/85/87 131/48/133 49/49/50 
s 298
f 86/86/88 127/44/129 87/87/89 
s 299
f 130/47/132 124/41/126 135/54/137 
s 300
f 130/47/132 135/54/137 128/46/130 
s 301
f 146/70/148 63/63/65 144/68/146 
s 302
f 147/72/149 146/70/148 144/68/146 
s 303
f 73/73/75 71/71/73 145/69/147 
s 304
f 87/87/89 127/44/129 129/45/131 
s 305
f 87/87/89 129/45/131 84/84/86 
s 306
f 97/11/99 95/8/97 15/15/15 
s 307
f 51/51/52 73/88/75 133/53/135 
s 308
f 151/77/153 156/89/158 120/37/122 
s 309
f 122/39/124 156/89/158 151/77/153 
s 310
f 138/57/140 156/89/158 136/55/138 
s 311
f 138/57/140 157/90/159 156/89/158 
s 312
f 157/90/159 147/72/149 156/89/158 
s 313
f 147/72/149 142/67/144 156/89/158 
s 314
f 156/89/158 142/67/144 120/37/122 
s 315
f 133/53/135 157/90/159 138/57/140 
s 316
f 133/53/135 145/69/147 157/90/159 
s 317
f 157/90/159 145/69/147 147/72/149 
s 318
f 137/56/139 156/89/158 122/39/124 
s 319
f 137/56/139 136/55/138 156/89/158 
s 320
f 136/55/138 137/56/139 121/38/123 
s 321
f 126/42/128 136/55/138 121/38/123 
s 322
f 158/91/160 130/47/132 127/44/129 
s 323
f 158/91/160 127/44/129 86/86/88 
s 324
f 158/91/160 86/92/88 51/51/52 
s 325
f 158/91/160 51/51/52 134/52/136 
s 326
f 159/93/161 158/91/160 134/52/136 
s 327
f 125/43/127 158/91/160 159/93/161 
s 328
f 125/43/127 130/47/132 158/91/160 
s 329
f 134/52/136 138/57/140 159/93/161 
s 330
f 138/57/140 125/43/127 159/93/161 
# 314 faces

