mtllib wheel-front-left.mtl
g g0
v 9.8694 6.0862 6.0862
v 9.8694 7.9521 3.2939
v 9.8694 8.6073 0
v 9.8694 7.9521 -3.2939
v 9.8694 6.0862 -6.0862
v 9.8694 3.2939 -7.9521
v 9.8694 0 -8.6073
v 9.8694 -3.2939 -7.9521
v 9.8694 -6.0862 -6.0862
v 9.8694 -7.9521 -3.2939
v 9.8694 -8.6073 0
v 9.8694 -7.9521 3.2939
v 9.8694 -6.0862 6.0862
v 9.8694 -3.2939 7.9521
v 9.8694 0 8.6073
v 9.8694 3.2939 7.9521
v 9.8694 0 0
v -2.0726 0 0
v -2.0727 2.0034 4.8367
v -2.0726 0 5.2351
v -2.0726 -2.0034 4.8367
v -2.0726 -3.7018 3.7019
v -2.0726 -4.8367 2.0034
v -2.0726 -5.2351 0
v -2.0726 -4.8367 -2.0034
v -2.0726 -3.7019 -3.7018
v -2.0726 -2.0034 -4.8367
v -2.0727 0 -5.2351
v -2.0727 2.0034 -4.8367
v -2.0727 3.7018 -3.7019
v -2.0727 4.8367 -2.0034
v -2.0727 5.2351 0
v -2.0727 4.8367 2.0034
v -2.0727 3.7019 3.7018
v -9.8694 2.0034 4.8367
v -9.8694 0 5.2351
v -9.8694 -2.0034 4.8367
v -9.8694 -3.7018 3.7019
v -9.8694 -4.8367 2.0034
v -9.8694 -5.2351 0
v -9.8694 -4.8367 -2.0034
v -9.8694 -3.7019 -3.7018
v -9.8694 -2.0034 -4.8367
v -9.8694 0 -5.2351
v -9.8694 2.0034 -4.8367
v -9.8694 3.7018 -3.7019
v -9.8694 4.8367 -2.0034
v -9.8694 5.2351 0
v -9.8694 4.8367 2.0034
v -9.8694 3.7019 3.7018
v -9.8694 6.2788 6.2788
v -9.8694 8.2037 3.398
v -9.8694 8.8796 0
v -9.8694 8.2037 -3.3981
v -9.8694 6.2788 -6.2788
v -9.8694 3.398 -8.2037
v -9.8694 0 -8.8796
v -9.8694 -3.3981 -8.2037
v -9.8694 -6.2788 -6.2788
v -9.8694 -8.2037 -3.398
v -9.8694 -8.8796 0
v -9.8694 -8.2037 3.3981
v -9.8694 -6.2788 6.2788
v -9.8694 -3.398 8.2037
v -9.8694 0 8.8796
v -9.8694 3.3981 8.2037
v 7.9952 0 0
v -7.5598 4.2092 10.1617
v -7.5598 0 10.999
v -7.5598 -4.2091 10.1618
v -7.5598 -7.7775 7.7775
v -7.5598 -10.1617 4.2092
v -7.5598 -10.999 0
v -7.5598 -10.1618 -4.2091
v -7.5598 -7.7775 -7.7775
v -7.5598 -4.2092 -10.1617
v -7.5598 0 -10.999
v -7.5598 4.2091 -10.1618
v -7.5598 7.7775 -7.7775
v -7.5598 10.1617 -4.2092
v -7.5598 10.999 0
v -7.5598 10.1618 4.2091
v -7.5598 7.7775 7.7775
v 7.9951 4.2092 10.1617
v 7.9952 0 10.999
v 7.9952 -4.2092 10.1618
v 7.9952 -7.7775 7.7775
v 7.9952 -10.1617 4.2092
v 7.9952 -10.999 0
v 7.9952 -10.1617 -4.2092
v 7.9952 -7.7775 -7.7775
v 7.9952 -4.2092 -10.1617
v 7.9952 0 -10.999
v 7.9951 4.2092 -10.1617
v 7.9951 7.7775 -7.7775
v 7.9951 10.1617 -4.2092
v 7.9951 10.999 0
v 7.9951 10.1617 4.2092
v 7.9951 7.7775 7.7775
vn 2.58158e-006 0.923881 0.382679
vn 0 0.707106 0.707108
vn 0 0.707106 0.707108
vn 2.58158e-006 0.923881 0.382679
vn 2.58158e-006 1 -4.58072e-006
vn 2.58158e-006 0.923881 0.382679
vn 2.58158e-006 0.923881 0.382679
vn 2.58158e-006 1 -4.58072e-006
vn 2.58158e-006 1 -4.58072e-006
vn 2.58158e-006 1 -4.58072e-006
vn 0 0.92388 -0.382682
vn 0 0.92388 -0.382682
vn 0 0.92388 -0.382682
vn 0 0.92388 -0.382682
vn 0 0.707108 -0.707106
vn 0 0.707108 -0.707106
vn 2.58158e-006 0.382679 -0.923881
vn 0 0.707108 -0.707106
vn 0 0.707108 -0.707106
vn 2.58158e-006 0.382679 -0.923881
vn 2.58158e-006 -4.59591e-006 -1
vn 2.58158e-006 0.382679 -0.923881
vn 2.58158e-006 0.382679 -0.923881
vn 2.58158e-006 -4.59591e-006 -1
vn 2.58158e-006 -4.59591e-006 -1
vn 2.58158e-006 -4.59591e-006 -1
vn 0 -0.382682 -0.92388
vn 0 -0.382682 -0.92388
vn 0 -0.382682 -0.92388
vn 0 -0.382682 -0.92388
vn 0 -0.707106 -0.707108
vn 0 -0.707106 -0.707108
vn 2.58156e-006 -0.923881 -0.382679
vn 0 -0.707106 -0.707108
vn 0 -0.707106 -0.707108
vn 2.58156e-006 -0.923881 -0.382679
vn 2.58157e-006 -1 4.58832e-006
vn 2.58156e-006 -0.923881 -0.382679
vn 2.58156e-006 -0.923881 -0.382679
vn 2.58157e-006 -1 4.58832e-006
vn 2.58157e-006 -1 4.58832e-006
vn 2.58157e-006 -1 4.58832e-006
vn 0 -0.92388 0.382682
vn 0 -0.92388 0.382682
vn 0 -0.92388 0.382682
vn 0 -0.92388 0.382682
vn 0 -0.707111 0.707102
vn 0 -0.707111 0.707102
vn -6.37166e-007 -0.382678 0.923882
vn 0 -0.707111 0.707102
vn 0 -0.707111 0.707102
vn -6.37166e-007 -0.382678 0.923882
vn -6.37165e-007 1.03085e-005 1
vn -6.37166e-007 -0.382678 0.923882
vn -6.37166e-007 -0.382678 0.923882
vn -6.37165e-007 1.03085e-005 1
vn -6.37165e-007 1.03085e-005 1
vn -6.37165e-007 1.03085e-005 1
vn 0 0.382682 0.92388
vn 0 0.382682 0.92388
vn 0 0.382682 0.92388
vn 0 0.382682 0.92388
vn 0 0.707106 0.707108
vn 0 0.707106 0.707108
vn -0.676114 0.281955 0.680714
vn -0.676114 0.281955 0.680714
vn -0.676126 0.520984 0.520989
vn -0.676126 0.520984 0.520989
vn -0.676114 5.42172e-006 0.736797
vn -0.676114 0.281955 0.680714
vn -0.676114 0.281955 0.680714
vn -0.676114 5.42172e-006 0.736797
vn -0.676124 -0.281952 0.680705
vn -0.676124 -0.281952 0.680705
vn -0.676114 5.42172e-006 0.736797
vn -0.676114 5.42172e-006 0.736797
vn -0.676129 -0.520983 0.520986
vn -0.676124 -0.281952 0.680705
vn -0.676124 -0.281952 0.680705
vn -0.676129 -0.520983 0.520986
vn -0.676119 -0.680708 0.281957
vn -0.676129 -0.520983 0.520986
vn -0.676129 -0.520983 0.520986
vn -0.676119 -0.680708 0.281957
vn -0.676114 -0.736797 5.42925e-006
vn -0.676119 -0.680708 0.281957
vn -0.676119 -0.680708 0.281957
vn -0.676114 -0.736797 5.42925e-006
vn -0.676125 -0.680705 -0.28195
vn -0.676125 -0.680705 -0.28195
vn -0.676114 -0.736797 5.42925e-006
vn -0.676114 -0.736797 5.42925e-006
vn -0.676126 -0.520984 -0.520989
vn -0.676126 -0.520984 -0.520989
vn -0.676125 -0.680705 -0.28195
vn -0.676125 -0.680705 -0.28195
vn -0.676114 -0.281955 -0.680714
vn -0.676114 -0.281955 -0.680714
vn -0.676126 -0.520984 -0.520989
vn -0.676126 -0.520984 -0.520989
vn -0.676114 -5.42172e-006 -0.736797
vn -0.676114 -0.281955 -0.680714
vn -0.676114 -0.281955 -0.680714
vn -0.676114 -5.42172e-006 -0.736797
vn -0.676125 0.28195 -0.680705
vn -0.676125 0.28195 -0.680705
vn -0.676114 -5.42172e-006 -0.736797
vn -0.676114 -5.42172e-006 -0.736797
vn -0.676126 0.520989 -0.520984
vn -0.676126 0.520989 -0.520984
vn -0.676125 0.28195 -0.680705
vn -0.676125 0.28195 -0.680705
vn -0.676114 0.680714 -0.281955
vn -0.676114 0.680714 -0.281955
vn -0.676126 0.520989 -0.520984
vn -0.676126 0.520989 -0.520984
vn -0.676114 0.736797 -5.42925e-006
vn -0.676114 0.680714 -0.281955
vn -0.676114 0.680714 -0.281955
vn -0.676114 0.736797 -5.42925e-006
vn -0.676125 0.680705 0.28195
vn -0.676125 0.680705 0.28195
vn -0.676114 0.736797 -5.42925e-006
vn -0.676114 0.736797 -5.42925e-006
vn -0.676126 0.520984 0.520989
vn -0.676126 0.520984 0.520989
vn -0.676125 0.680705 0.28195
vn -0.676125 0.680705 0.28195
vn -1 0 0
vn -1 0 0
vn -1 0 0
vn -1 0 0
vn -1 0 0
vn -1 0 0
vn -1 0 0
vn -1 0 0
vn -1 0 0
vn -1 0 0
vn -1 0 0
vn -1 0 0
vn -1 0 0
vn -1 0 0
vn -1 0 0
vn -1 0 0
vn -1 0 0
vn -1 0 0
vn -1 0 0
vn -1 0 0
vn -1 0 0
vn -1 0 0
vn -1 0 0
vn -1 0 0
vn -1 0 0
vn -1 0 0
vn -1 0 0
vn -1 0 0
vn -1 0 0
vn -1 0 0
vn -1 0 0
vn -1 0 0
vn -1 0 0
vn -1 0 0
vn -1 0 0
vn -1 0 0
vn -1 0 0
vn -1 0 0
vn -1 0 0
vn -1 0 0
vn -1 0 0
vn -1 0 0
vn -1 0 0
vn -1 0 0
vn -1 0 0
vn -1 0 0
vn -1 0 0
vn -1 0 0
vn -1 0 0
vn -1 0 0
vn -1 0 0
vn -1 0 0
vn -1 0 0
vn -1 0 0
vn -1 0 0
vn -1 0 0
vn -1 0 0
vn -1 0 0
vn -1 0 0
vn -1 0 0
vn -1 0 0
vn -1 0 0
vn -1 0 0
vn -1 0 0
vn 0 -0.707112 -0.707102
vn 0 -0.923891 -0.382655
vn 0 -0.923891 -0.382655
vn 0 -0.707112 -0.707102
vn 0 -0.923891 -0.382655
vn 0 -1 0
vn 0 -1 0
vn 0 -0.923891 -0.382655
vn 0 -1 0
vn 0 -0.923889 0.382661
vn 0 -0.923889 0.382661
vn 0 -1 0
vn 0 -0.923889 0.382661
vn 0 -0.707102 0.707112
vn 0 -0.707102 0.707112
vn 0 -0.923889 0.382661
vn 0 -0.707102 0.707112
vn 0 -0.382655 0.923891
vn 0 -0.382655 0.923891
vn 0 -0.707102 0.707112
vn 0 -0.382655 0.923891
vn 0 -7.59647e-009 1
vn 0 -7.59647e-009 1
vn 0 -0.382655 0.923891
vn 0 -7.59647e-009 1
vn 0 0.382661 0.923889
vn 0 0.382661 0.923889
vn 0 -7.59647e-009 1
vn 0 0.382661 0.923889
vn 0 0.707112 0.707102
vn 0 0.707112 0.707102
vn 0 0.382661 0.923889
vn 0 0.707112 0.707102
vn 0 0.923891 0.382655
vn 0 0.923891 0.382655
vn 0 0.707112 0.707102
vn 0 0.923891 0.382655
vn 0 1 0
vn 0 1 0
vn 0 0.923891 0.382655
vn 0 1 0
vn 0 0.923889 -0.382661
vn 0 0.923889 -0.382661
vn 0 1 0
vn 0 0.923889 -0.382661
vn 0 0.707102 -0.707112
vn 0 0.707102 -0.707112
vn 0 0.923889 -0.382661
vn 0 0.707102 -0.707112
vn 0 0.382655 -0.923891
vn 0 0.382655 -0.923891
vn 0 0.707102 -0.707112
vn 0 0.382655 -0.923891
vn 0 0 -1
vn 0 0 -1
vn 0 0.382655 -0.923891
vn 0 0 -1
vn 0 0 -1
vn 0 -0.382661 -0.923889
vn 0 -0.382661 -0.923889
vn 0 -0.382661 -0.923889
vn 0 -0.707112 -0.707102
vn 0 -0.707112 -0.707102
vn 0 -0.382661 -0.923889
vn 0.787117 0.236049 0.569849
vn 0.787113 0.436144 0.436154
vn 0.787113 0.436144 0.436154
vn 0.787117 0.236049 0.569849
vn 0.787117 0.236049 0.569849
vn 0.787118 1.17101e-005 0.616803
vn 0.787118 1.17101e-005 0.616803
vn 0.787117 0.236049 0.569849
vn 0.787118 1.17101e-005 0.616803
vn 0.787118 1.17101e-005 0.616803
vn 0.78713 -0.236034 0.569838
vn 0.78713 -0.236034 0.569838
vn 0.78713 -0.236034 0.569838
vn 0.787124 -0.436144 0.436135
vn 0.787124 -0.436144 0.436135
vn 0.78713 -0.236034 0.569838
vn 0.787124 -0.436144 0.436135
vn 0.787115 -0.569853 0.236046
vn 0.787115 -0.569853 0.236046
vn 0.787124 -0.436144 0.436135
vn 0.787115 -0.569853 0.236046
vn 0.787115 -0.616806 -1.27985e-006
vn 0.787115 -0.616806 -1.27985e-006
vn 0.787115 -0.569853 0.236046
vn 0.787115 -0.616806 -1.27985e-006
vn 0.787115 -0.616806 -1.27985e-006
vn 0.787119 -0.569851 -0.236038
vn 0.787119 -0.569851 -0.236038
vn 0.787119 -0.569851 -0.236038
vn 0.787119 -0.569851 -0.236038
vn 0.787119 -0.436148 -0.43614
vn 0.787119 -0.436148 -0.43614
vn 0.787119 -0.436148 -0.43614
vn 0.787115 -0.236046 -0.569853
vn 0.787115 -0.236046 -0.569853
vn 0.787119 -0.436148 -0.43614
vn 0.787115 -0.236046 -0.569853
vn 0.787112 1.12372e-005 -0.61681
vn 0.787112 1.12372e-005 -0.61681
vn 0.787115 -0.236046 -0.569853
vn 0.787112 1.12372e-005 -0.61681
vn 0.787112 1.12372e-005 -0.61681
vn 0.787106 0.236053 -0.569862
vn 0.787106 0.236053 -0.569862
vn 0.787106 0.236053 -0.569862
vn 0.787106 0.236053 -0.569862
vn 0.787103 0.436155 -0.436162
vn 0.787103 0.436155 -0.436162
vn 0.787103 0.436155 -0.436162
vn 0.787099 0.569872 -0.236054
vn 0.787099 0.569872 -0.236054
vn 0.787103 0.436155 -0.436162
vn 0.787099 0.569872 -0.236054
vn 0.787099 0.616826 1.2761e-006
vn 0.787099 0.616826 1.2761e-006
vn 0.787099 0.569872 -0.236054
vn 0.787099 0.616826 1.2761e-006
vn 0.787099 0.616826 1.2761e-006
vn 0.787104 0.569863 0.236058
vn 0.787104 0.569863 0.236058
vn 0.787113 0.436144 0.436154
vn 0.787113 0.436144 0.436154
vn 0.787104 0.569863 0.236058
vn 0.787104 0.569863 0.236058
vn 1 0 0
vn 1 0 0
vn 1 0 0
vn 1 0 0
vn 1 0 0
vn 1 0 0
vn 1 0 0
vn 1 0 0
vn 1 0 0
vn 1 0 0
vn 1 0 0
vn 1 0 0
vn 1 0 0
vn 1 0 0
vn 1 0 0
vn 1 0 0
vn 1 0 0
vn 1 0 0
vn 1 0 0
vn 1 0 0
vn 1 0 0
vn 1 0 0
vn 1 0 0
vn 1 0 0
vn 1 0 0
vn 1 0 0
vn 1 0 0
vn 1 0 0
vn 1 0 0
vn 1 0 0
vn 1 0 0
vn 1 0 0
vn -1 -2.65406e-005 -4.46182e-006
vn -1 -1.37057e-005 4.33518e-006
vn -1 -1.75096e-005 0
vn -1 -3.50192e-005 0
vn -1 -1.75096e-005 0
vn -1 -1.37057e-005 4.33518e-006
vn -1 0 0
vn -1 0 0
vn -1 0 0
vn -1 -1.37057e-005 4.33518e-006
vn -1 0 0
vn -1 0 0
vn -1 0 0
vn -1 -1.37057e-005 4.33518e-006
vn -1 -1.42791e-005 9.54112e-006
vn -1 0 0
vn -1 -1.42791e-005 9.54112e-006
vn -1 -1.37057e-005 4.33518e-006
vn -1 -1.8741e-005 1.85721e-005
vn -1 -2.85583e-005 1.90822e-005
vn -1 -1.8741e-005 1.85721e-005
vn -1 -1.37057e-005 4.33518e-006
vn -1 -1.40029e-005 1.22614e-005
vn -1 -8.92365e-006 1.8062e-005
vn -1 -1.40029e-005 1.22614e-005
vn -1 -1.37057e-005 4.33518e-006
vn -1 -1.85721e-005 -1.23139e-006
vn -1 -1.90822e-005 6.46086e-006
vn -1 -1.85721e-005 -1.23139e-006
vn -1 -1.37057e-005 4.33518e-006
vn -1 -2.65406e-005 -4.46182e-006
vn -1 -1.8062e-005 -8.92365e-006
vt 0 0
vt 0 0
vt 0 0
vt 0 0
vt 0 0
vt 0 0
vt 0 0
vt 0 0
vt 0 0
vt 0 0
vt 0 0
vt 0 0
vt 0 0
vt 0 0
vt 0 0
vt 0 0
vt 0 0
vt 0 0
vt 0 0
vt 0 0
vt 0 0
vt 0 0
vt 0 0
vt 0 0
vt 0 0
vt 0 0
vt 0 0
vt 0 0
vt 0 0
vt 0 0
vt 0 0
vt 0 0
vt 0 0
vt 0 0
vt 0 0
vt 0 0
vt 0 0
vt 0 0
vt 0 0
vt 0 0
vt 0 0
vt 0 0
vt 0 0
vt 0 0
vt 0 0
vt 0 0
vt 0 0
vt 0 0
vt 0 0
vt 0 0
vt 0 0
vt 0 0
vt 0 0
vt 0 0
vt 0 0
vt 0 0
vt 0 0
vt 0 0
vt 0 0
vt 0 0
vt 0 0
vt 0 0
vt 0 0
vt 0 0
vt 0 0
vt 0 0
vt 0 0
vt 0 0
vt 0 0
vt 0 0
vt 0 0
vt 0 0
vt 0 0
vt 0 0
vt 0 0
vt 0 0
vt 0 0
vt 0 0
vt 0 0
vt 0 0
vt 0 0
vt 0 0
vt 0 0
vt 0 0
vt 0 0
vt 0 0
vt 0 0
vt 0 0
vt 0 0
vt 0 0
vt 0 0
vt 0 0
vt 0 0
vt 0 0
vt 0 0
vt 0 0
vt 0 0
vt 0 0
vt 0 0
vt 0 0
vt 0 0
vt 0 0
vt 0 0
vt 0 0
vt 0 0
vt 0 0
vt 0 0
vt 0 0
vt 0 0
vt 0 0
vt 0 0
vt 0 0
vt 0 0
vt 0 0
vt 0 0
vt 0 0
vt 0 0
vt 0 0
vt 0 0
vt 0 0
vt 0 0
vt 0 0
vt 0 0
vt 0 0
vt 0 0
vt 0 0
vt 0 0
vt 0 0
vt 0 0
vt 0 0
vt 0 0
vt 0 0
vt 0 0
vt 0 0
vt 0 0
vt 0 0
vt 0 0
vt 0 0
vt 0 0
vt 0 0
vt 0 0
vt 0 0
vt 0 0
vt 0 0
vt 0 0
vt 0 0
vt 0 0
vt 0 0
vt 0 0
vt 0 0
vt 0 0
vt 0 0
vt 0 0
vt 0 0
vt 0 0
vt 0 0
vt 0 0
vt 0 0
vt 0 0
vt 0 0
vt 0 0
vt 0 0
vt 0 0
vt 0 0
vt 0 0
vt 0 0
vt 0 0
vt 0 0
vt 0 0
vt 0 0
vt 0 0
vt 0 0
vt 0 0
vt 0 0
vt 0 0
vt 0 0
vt 0 0
vt 0 0
vt 0 0
vt 0 0
vt 0 0
vt 0 0
vt 0 0
vt 0 0
vt 0 0
vt 0 0
vt 0 0
vt 0 0
vt 0 0
vt 0 0
vt 0 0
vt 0 0
vt 0 0
vt 0 0
vt 0 0
vt 0 0
vt 0 0
vt 0 0
vt 0 0
vt 0 0
vt 0 0
vt 0 0
vt 0 0
vt 0 0
vt 0 0
vt 0 0
vt 0 0
vt 0 0
vt 0 0
vt 0 0
vt 0 0
vt 0 0
vt 0 0
vt 0 0
vt 0 0
vt 0 0
vt 0 0
vt 0 0
vt 0 0
vt 0 0
vt 0 0
vt 0 0
vt 0 0
vt 0 0
vt 0 0
vt 0 0
vt 0 0
vt 0 0
vt 0 0
vt 0 0
vt 0 0
vt 0 0
vt 0 0
vt 0 0
vt 0 0
vt 0 0
vt 0 0
vt 0 0
vt 0 0
vt 0 0
vt 0 0
vt 0 0
vt 0 0
vt 0 0
vt 0 0
vt 0 0
vt 0 0
vt 0 0
vt 0 0
vt 0 0
vt 0 0
vt 0 0
vt 0 0
vt 0 0
vt 0 0
vt 0 0
vt 0 0
vt 0 0
vt 0 0
vt 0 0
vt 0 0
vt 0 0
vt 0 0
vt 0 0
vt 0 0
vt 0 0
vt 0 0
vt 0 0
vt 0 0
vt 0 0
vt 0 0
vt 0 0
vt 0 0
vt 0 0
vt 0 0
vt 0 0
vt 0 0
vt 0 0
vt 0 0
vt 0 0
vt 0 0
vt 0 0
vt 0 0
vt 0 0
vt 0 0
vt 0 0
vt 0 0
vt 0 0
vt 0 0
vt 0 0
vt 0 0
vt 0 0
vt 0 0
vt 0 0
vt 0 0
vt 0 0
vt 0 0
vt 0 0
vt 0 0
vt 0 0
vt 0 0
vt 0 0
vt 0 0
vt 0 0
vt 0 0
vt 0 0
vt 0 0
vt 0 0
vt 0 0
vt 0 0
vt 0 0
vt 0 0
vt 0 0
vt 0 0
vt 0 0
vt 0 0
vt 0 0
vt 0 0
vt 0 0
vt 0 0
vt 0 0
vt 0 0
vt 0 0
vt 0 0
vt 0 0
vt 0 0
vt 0 0
vt 0 0
vt 0 0
vt 0 0
vt 0 0
vt 0 0
vt 0 0
vt 0 0
vt 0 0
vt 0 0
vt 0 0
vt 0 0
vt 0 0
vt 0 0
vt 0 0
vt 0 0
vt 0 0
vt 0 0
vt 0 0
vt 0 0
vt 0 0
vt 0 0
vt 0 0
vt 0 0
vt 0 0
vt 0 0
vt 0 0
vt 0 0
vt 0 0
vt 0 0
vt 0 0
vt 0 0
vt 0 0
vt 0 0
vt 0 0
vt 0 0
vt 0 0
vt 0 0
vt 0 0
vt 0 0
vt 0 0
vt 0 0
vt 0 0
vt 0 0
vt 0 0
vt 0 0
vt 0 0
vt 0 0
vt 0 0
vt 0 0
vt 0 0
vt 0 0
vt 0 0
vt 0 0
vt 0 0
vt 0 0
vt 0 0
vt 0 0
usemtl acmat_0
f 82/1/1 83/2/2 99/3/3 98/4/4
f 81/5/5 82/6/6 98/7/7 97/8/8
f 81/9/9 97/10/10 96/11/11 80/12/12
f 80/13/13 96/14/14 95/15/15 79/16/16
f 78/17/17 79/18/18 95/19/19 94/20/20
f 77/21/21 78/22/22 94/23/23 93/24/24
f 77/25/25 93/26/26 92/27/27 76/28/28
f 76/29/29 92/30/30 91/31/31 75/32/32
f 74/33/33 75/34/34 91/35/35 90/36/36
f 73/37/37 74/38/38 90/39/39 89/40/40
f 73/41/41 89/42/42 88/43/43 72/44/44
f 72/45/45 88/46/46 87/47/47 71/48/48
f 70/49/49 71/50/50 87/51/51 86/52/52
f 69/53/53 70/54/54 86/55/55 85/56/56
f 69/57/57 85/58/58 84/59/59 68/60/60
f 68/61/61 84/62/62 99/63/63 83/64/64
f 66/65/65 68/66/66 83/67/67 51/68/68
f 69/69/69 68/70/70 66/71/71 65/72/72
f 64/73/73 70/74/74 69/75/75 65/76/76
f 71/77/77 70/78/78 64/79/79 63/80/80
f 72/81/81 71/82/82 63/83/83 62/84/84
f 73/85/85 72/86/86 62/87/87 61/88/88
f 60/89/89 74/90/90 73/91/91 61/92/92
f 59/93/93 75/94/94 74/95/95 60/96/96
f 58/97/97 76/98/98 75/99/99 59/100/100
f 77/101/101 76/102/102 58/103/103 57/104/104
f 56/105/105 78/106/106 77/107/107 57/108/108
f 55/109/109 79/110/110 78/111/111 56/112/112
f 54/113/113 80/114/114 79/115/115 55/116/116
f 81/117/117 80/118/118 54/119/119 53/120/120
f 52/121/121 82/122/122 81/123/123 53/124/124
f 51/125/125 83/126/126 82/127/127 52/128/128
f 51/129/129 52/130/130 49/131/131 50/132/132
f 52/133/133 53/134/134 48/135/135 49/136/136
f 48/137/137 53/138/138 54/139/139 47/140/140
f 54/141/141 55/142/142 46/143/143 47/144/144
f 55/145/145 56/146/146 45/147/147 46/148/148
f 56/149/149 57/150/150 44/151/151 45/152/152
f 44/153/153 57/154/154 58/155/155 43/156/156
f 58/157/157 59/158/158 42/159/159 43/160/160
f 59/161/161 60/162/162 41/163/163 42/164/164
f 60/165/165 61/166/166 40/167/167 41/168/168
f 40/169/169 61/170/170 62/171/171 39/172/172
f 62/173/173 63/174/174 38/175/175 39/176/176
f 63/177/177 64/178/178 37/179/179 38/180/180
f 64/181/181 65/182/182 36/183/183 37/184/184
f 36/185/185 65/186/186 66/187/187 35/188/188
f 66/189/189 51/190/190 50/191/191 35/192/192
usemtl acmat_1
f 50/193/193 49/194/194 33/195/195 34/196/196
f 49/197/197 48/198/198 32/199/199 33/200/200
f 48/201/201 47/202/202 31/203/203 32/204/204
f 47/205/205 46/206/206 30/207/207 31/208/208
f 46/209/209 45/210/210 29/211/211 30/212/212
f 45/213/213 44/214/214 28/215/215 29/216/216
f 44/217/217 43/218/218 27/219/219 28/220/220
f 43/221/221 42/222/222 26/223/223 27/224/224
f 42/225/225 41/226/226 25/227/227 26/228/228
f 41/229/229 40/230/230 24/231/231 25/232/232
f 40/233/233 39/234/234 23/235/235 24/236/236
f 39/237/237 38/238/238 22/239/239 23/240/240
f 38/241/241 37/242/242 21/243/243 22/244/244
f 37/245/245 36/246/246 20/247/247 21/248/248
f 20/249/249 36/250/250 35/251/251 19/252/252
f 35/253/253 50/254/254 34/255/255 19/256/256
usemtl acmat_0
f 16/257/257 1/258/258 99/259/259 84/260/260
f 84/261/261 85/262/262 15/263/263 16/264/264
f 15/265/265 85/266/266 86/267/267 14/268/268
f 86/269/269 87/270/270 13/271/271 14/272/272
f 87/273/273 88/274/274 12/275/275 13/276/276
f 88/277/277 89/278/278 11/279/279 12/280/280
f 11/281/281 89/282/282 90/283/283 10/284/284
f 10/285/285 90/286/286 91/287/287 9/288/288
f 91/289/289 92/290/290 8/291/291 9/292/292
f 92/293/293 93/294/294 7/295/295 8/296/296
f 7/297/297 93/298/298 94/299/299 6/300/300
f 6/301/301 94/302/302 95/303/303 5/304/304
f 95/305/305 96/306/306 4/307/307 5/308/308
f 96/309/309 97/310/310 3/311/311 4/312/312
f 3/313/313 97/314/314 98/315/315 2/316/316
f 99/317/317 1/318/318 2/319/319 98/320/320
f 2/321/321 1/322/322 16/323/323 17/324/324
f 4/325/325 3/326/326 2/327/327 17/328/328
f 6/329/329 5/330/330 4/331/331 17/332/332
f 8/333/333 7/334/334 6/335/335 17/336/336
f 10/337/337 9/338/338 8/339/339 17/340/340
f 12/341/341 11/342/342 10/343/343 17/344/344
f 14/345/345 13/346/346 12/347/347 17/348/348
f 16/349/349 15/350/350 14/351/351 17/352/352
usemtl acmat_1
f 34/353/353 18/354/354 20/355/355 19/356/356
f 20/357/357 18/358/358 22/359/359 21/360/360
f 22/361/361 18/362/362 24/363/363 23/364/364
f 24/365/365 18/366/366 26/367/367 25/368/368
f 26/369/369 18/370/370 28/371/371 27/372/372
f 28/373/373 18/374/374 30/375/375 29/376/376
f 30/377/377 18/378/378 32/379/379 31/380/380
f 32/381/381 18/382/382 34/383/383 33/384/384
